<svg height="512" viewBox="0 0 60 60" width="512" xmlns="http://www.w3.org/2000/svg"><g id="012---No-Food-or-Drink"><path id="Shape" d="m30 0c-16.5685425 0-30 13.4314575-30 30s13.4314575 30 30 30 30-13.4314575 30-30c-.018737-16.5607751-13.4392249-29.98126296-30-30zm0 58c-15.463973 0-28-12.536027-28-28s12.536027-28 28-28 28 12.536027 28 28c-.0176345 15.4566626-12.5433374 27.9823655-28 28z"/><path id="Shape" d="m48.377 11.623c-.3923789-.3789722-1.0160848-.3735524-1.4018186.0121814s-.3911536 1.0094397-.0121814 1.4018186c8.4451525 8.4794481 9.3675766 21.8793204 2.164 31.436l-2.714-2.715 2.44-19.52c.067998-.567347-.1099222-1.1366859-.488868-1.5643616-.3789459-.4276756-.9227252-.6728418-1.494132-.6736384h-10.07l-1.826-8.217c-.1280376-.5299009-.6569083-.8596142-1.1890639-.7412968s-.8714936.6410648-.7629361 1.1752968l1.732 7.783h-1.624c-.5724131.0008758-1.1170165.2469756-1.4959528.6760034-.3789363.4290277-.5558823.9998588-.4860472 1.5679966l.608 4.857-16.237-16.236c6.8398009-5.15994326 15.9074803-6.2934508 23.807-2.976.5075497.21787631 1.0956236-.01695034 1.3135-.52450001.2178763-.50754968-.0169503-1.09562364-.5245-1.31349999-8.9570874-3.76507357-19.2653322-2.23022963-26.737 3.981-.2108677.1814397-.3366271.442516-.3470635.7205027-.0104364.2779868.0953937.5477575.2920635.7444973l35.19 35.19c.2000924.2016636.4765139.3087047.7602398.2943944s.5479743-.1486213.7267602-.3693944c8.5499546-10.3407382 7.8475118-25.4841593-1.623-34.989zm-15.247 10.377h13.738l-2.247 17.967-10.562-10.562z"/><path id="Shape" d="m10.607 14.433c-.2071081-.2069924-.4945331-.3128113-.78641931-.2895297-.29188622.0232816-.558903.1733244-.73058069.4105297-6.56537649 8.8400817-6.82131515 20.8655881-.638 29.977.31329217.4472337.92742016.5604625 1.37960692.2543627.45218678-.3060999.57522238-.9183386.27639308-1.3753627-5.46971136-8.0557985-5.49622807-18.6268623-.067-26.71l8.3 8.3h-2.341c-1.6200164.0013824-3.1703928.6588884-4.2974957 1.8225439-1.1271028 1.1636555-1.73480926 2.7342203-1.6845043 4.3534561-1.20378035.4156274-2.01147973 1.5489878-2.01147973 2.8225s.80769938 2.4068726 2.01147973 2.8225c-.05795132 1.3562724.4417342 2.6771655 1.3828513 3.6554966.9411172.9783312 2.2416492 1.5288405 3.5991487 1.5235034h10c1.3546209.0009542 2.6512511-.5496304 3.5913115-1.5249689.9400603-.9753386 1.4425245-2.2913641 1.3916885-3.6450311.046-.017.091-.038.136-.056l3.251 3.251.527 4.214c.1208271 1.0038674.9718881 1.7596509 1.983 1.761h3.465l3.955 3.959c-8.0843818 5.4299266-18.6569568 5.4034101-26.714-.067-.4570241-.2988293-1.0692628-.1757937-1.3753627.2763931-.3060998.4521867-.192871 1.0663147.2543627 1.3796069 9.1121306 6.1808841 21.1360968 5.9249782 29.977-.638.2372053-.1716777.3872481-.4386945.4105297-.7305807s-.0825373-.5793112-.2895297-.7864193c-22.124-22.128-11.023-10.999-34.956-34.96zm5.393 12.567h4.345l4 4h-12.345c.0087695-2.2054964 1.7945036-3.9912305 4-4zm-5.694 6.288c.1823963-.1865985.4330776-.2906276.694-.288h15.345l2 2h-17.345c-.4042387-.003293-.7667342-.2496464-.9186036-.6242868-.15186947-.3746405-.0632373-.8038692.2246036-1.0877132zm14.694 6.712h-10c-1.6568542 0-3-1.3431458-3-3h16c0 1.6568542-1.3431458 3-3 3zm10.882 4-.208-1.668 1.669 1.668z"/></g></svg>